<svg id="visual" viewBox="0 0 900 600" width="900" height="600" xmlns="http://www.w3.org/2000/svg" xmlns:xlink="http://www.w3.org/1999/xlink" version="1.1"><rect x="0" y="0" width="900" height="600" fill="#ffffff"></rect><g transform="translate(482.30451655199823 280.6767010860792)"><path d="M131.7 -204.4C172.1 -178.9 207.5 -144.9 235 -102.2C262.5 -59.5 282.2 -8 272.4 37C262.5 82 223.1 120.6 189.3 169.8C155.6 219 127.5 278.8 85.9 289.8C44.3 300.8 -10.9 262.8 -72.4 245.3C-134 227.9 -201.9 230.8 -248.6 201.6C-295.3 172.5 -320.9 111.1 -332.8 46.2C-344.7 -18.7 -342.9 -87.3 -311 -135.8C-279.1 -184.3 -217.1 -212.9 -160.3 -230.9C-103.4 -249 -51.7 -256.5 -3.1 -251.7C45.6 -246.9 91.2 -229.9 131.7 -204.4" fill="#001D3D"></path></g></svg>