<svg id="visual" viewBox="0 0 900 600" width="900" height="600" xmlns="http://www.w3.org/2000/svg" xmlns:xlink="http://www.w3.org/1999/xlink" version="1.1"><rect x="0" y="0" width="900" height="600" fill="#000814"></rect><defs><linearGradient id="grad1_0" x1="33.3%" y1="0%" x2="100%" y2="100%"><stop offset="20%" stop-color="#000814" stop-opacity="1"></stop><stop offset="80%" stop-color="#000814" stop-opacity="1"></stop></linearGradient></defs><defs><linearGradient id="grad2_0" x1="0%" y1="0%" x2="66.7%" y2="100%"><stop offset="20%" stop-color="#000814" stop-opacity="1"></stop><stop offset="80%" stop-color="#000814" stop-opacity="1"></stop></linearGradient></defs><g transform="translate(900, 0)"><path d="M0 513.8C-27.5 431 -55.1 348.3 -112.5 346.2C-169.9 344.1 -257.2 422.6 -302 415.7C-346.8 408.7 -349 316.3 -349.5 253.9C-349.9 191.6 -348.6 159.4 -375.7 122.1C-402.7 84.8 -458.3 42.4 -513.8 0L0 0Z" fill="#FFC300"></path></g><g transform="translate(0, 600)"><path d="M0 -513.8C65.2 -525.8 130.5 -537.8 158.8 -488.6C187.1 -439.5 178.4 -329.1 204.5 -281.5C230.7 -233.9 291.7 -249 317.9 -231C344.1 -213 335.5 -161.8 362.4 -117.7C389.2 -73.7 451.5 -36.9 513.8 0L0 0Z" fill="#FFC300"></path></g></svg>