<svg id="visual" viewBox="0 0 900 1000" width="900" height="1000" xmlns="http://www.w3.org/2000/svg" xmlns:xlink="http://www.w3.org/1999/xlink" version="1.1"><rect x="0" y="0" width="900" height="1000" fill="transparent"></rect><path d="M0 677L21.5 667.3C43 657.7 86 638.3 128.8 594C171.7 549.7 214.3 480.3 257.2 483.8C300 487.3 343 563.7 385.8 582.7C428.7 601.7 471.3 563.3 514.2 575.5C557 587.7 600 650.3 642.8 678.2C685.7 706 728.3 699 771.2 676.8C814 654.7 857 617.3 878.5 598.7L900 580L900 0L878.5 0C857 0 814 0 771.2 0C728.3 0 685.7 0 642.8 0C600 0 557 0 514.2 0C471.3 0 428.7 0 385.8 0C343 0 300 0 257.2 0C214.3 0 171.7 0 128.8 0C86 0 43 0 21.5 0L0 0Z" fill="#000814" stroke-linecap="round" stroke-linejoin="miter" ></path></svg>